<?xml version="1.0" encoding="utf-8"?>
<!-- Generator: Adobe Illustrator 17.1.0, SVG Export Plug-In . SVG Version: 6.00 Build 0)  -->
<!DOCTYPE svg PUBLIC "-//W3C//DTD SVG 1.1//EN" "http://www.w3.org/Graphics/SVG/1.1/DTD/svg11.dtd">
<svg version="1.1" id="Directions_alt" xmlns="http://www.w3.org/2000/svg" xmlns:xlink="http://www.w3.org/1999/xlink" x="0px" width="36" height="36"
	 y="0px" viewBox="0 0 36 36" enable-background="new 0 0 36 36" xml:space="preserve">
<path fill="#FFFFFF" d="M32.4,11c-1.6,0-2.9,1.3-2.9,2.9v0.4l-3.9,0.1l-6.4,5.8h-7.8v-2h7L25,12V8c1.1-0.4,2-1.4,2-2.7
	S26.2,3,25,2.6V0h-1.7v2.5c-1.2,0.4-2,1.4-2,2.7s0.9,2.4,2,2.7v3.3l-5.4,5.3h-6.4c-0.3-1.3-1.4-2.3-2.8-2.3s-2.6,1-2.8,2.3H0.2v1.7
	h5.6v2H0V22h5.6v1.9H0v1.7h5.7c0.3,1.2,1.5,2.1,2.8,2.1s2.5-0.9,2.8-2.1H18v3c-1.4,0.2-2.6,1.4-2.6,2.9s1.1,2.7,2.5,2.9v1.7h1.7
	v-1.6h2.7v1.8H24v-1.8c1.6-0.1,2.8-1.3,2.8-2.9s-1.3-2.9-2.8-2.9v-5.1l3.6-3.6h1.8c0.1,1.5,1.4,2.7,2.9,2.7c1.6,0,2.9-1.3,2.9-2.9
	V14C35.3,12.3,34,11,32.4,11z M27.1,18.2l-4.6,4.5v5.8h-2.6v-4.7h-8.3V22H20l6.4-5.8h3.2v2H27.1L27.1,18.2z"/>
</svg>
