<?xml version="1.0" encoding="utf-8"?>
<!-- Generator: Adobe Illustrator 17.1.0, SVG Export Plug-In . SVG Version: 6.00 Build 0)  -->
<!DOCTYPE svg PUBLIC "-//W3C//DTD SVG 1.1//EN" "http://www.w3.org/Graphics/SVG/1.1/DTD/svg11.dtd">
<svg version="1.1" id="Ebene_1" xmlns="http://www.w3.org/2000/svg" xmlns:xlink="http://www.w3.org/1999/xlink" x="0px" y="0px"
	 width="160px" height="65.5px" viewBox="0 10.6 160 65.5" enable-background="new 0 10.6 160 65.5" xml:space="preserve">
<path fill="#00264B" d="M42.7,11.7h16v8.4h0.2c3.5-6.6,10.5-9.5,18.5-9.5c13.8,0,19.4,8.8,19.4,18.2v28.5H79.2V35.3
	c0-8.6-3.3-11.5-8.1-11.5c-7.2,0-10.9,4.5-10.9,14.3v19.3H42.7L42.7,11.7L42.7,11.7z"/>
<path fill="#00264B" d="M35.8,11.4c-1.4-0.2-3-0.3-4.5-0.3c-7.6,0-12.1,3.2-15.1,9H16v-8.4H0v45.7h17.5V38.1
	c0-8.9,4.7-13.8,12.9-13.8c1.9,0,3.6,0,5.4,0.4C35.8,24.6,35.8,11.4,35.8,11.4z"/>
<polygon fill="#EE7203" points="160,11.8 138.9,57.5 115,57.5 101.6,23.6 118.7,23.6 127.2,45 127.2,45 142.4,11.8 "/>
<g>
	<path d="M6.6,73.3V66l-2.2,7.4H3.5L1.4,66v7.4h-1v-8.4h1.7L4,71.7l1.9-6.8h1.8v8.4H6.6z"/>
	<path d="M9.8,65.7v-1.2h1.1v1.2H9.8z M9.8,73.3V67h1.1v6.3H9.8z"/>
	<path d="M15.4,73.3c-0.2,0.1-0.3,0.1-0.5,0.1c-0.2,0-0.4,0-0.5,0c-0.5,0-0.8-0.1-1-0.4c-0.2-0.3-0.3-0.6-0.3-1.1v-4h-0.9V67H13
		v-1.4l1.1-0.4V67h1.2v0.9h-1.2v3.8c0,0.1,0,0.2,0,0.4c0,0.1,0,0.2,0.1,0.3c0,0.1,0.1,0.1,0.2,0.2c0.1,0,0.2,0.1,0.4,0.1
		c0.1,0,0.2,0,0.3-0.1c0.1,0,0.2-0.1,0.3-0.1L15.4,73.3z"/>
	<path d="M24.3,73c0,0.5,0,0.9-0.1,1.2c-0.1,0.4-0.2,0.7-0.4,1s-0.5,0.5-0.8,0.7c-0.3,0.2-0.7,0.3-1.2,0.3c-0.3,0-0.6,0-1-0.1
		s-0.6-0.2-0.9-0.3l0.1-1c0.3,0.2,0.5,0.3,0.8,0.4s0.6,0.1,0.9,0.1c0.4,0,0.7-0.1,0.9-0.2c0.2-0.2,0.4-0.4,0.5-0.6
		c0.1-0.3,0.2-0.5,0.2-0.8c0-0.3,0-0.6,0-0.9v-0.4c-0.2,0.3-0.4,0.5-0.6,0.7c-0.3,0.2-0.6,0.3-0.9,0.3c-0.4,0-0.7-0.1-1-0.3
		c-0.3-0.2-0.5-0.5-0.6-0.7c-0.2-0.3-0.3-0.6-0.4-1c-0.1-0.4-0.1-0.7-0.1-1.1c0-0.4,0-0.7,0.1-1.1c0.1-0.4,0.2-0.7,0.4-1.1
		c0.2-0.3,0.4-0.6,0.6-0.8c0.3-0.2,0.6-0.3,1-0.3c0.4,0,0.7,0.1,1,0.3c0.3,0.2,0.5,0.4,0.6,0.7V67h1.1V73z M23.2,70.1
		c0-0.2,0-0.5-0.1-0.7c0-0.3-0.1-0.5-0.2-0.8s-0.2-0.5-0.4-0.6c-0.2-0.2-0.4-0.2-0.7-0.2s-0.5,0.1-0.6,0.3c-0.2,0.2-0.3,0.4-0.4,0.6
		c-0.1,0.3-0.1,0.5-0.2,0.8s0,0.5,0,0.7c0,0.2,0,0.5,0,0.7s0.1,0.5,0.2,0.7c0.1,0.2,0.2,0.4,0.4,0.6c0.2,0.2,0.4,0.2,0.6,0.2
		c0.3,0,0.5-0.1,0.7-0.2c0.2-0.2,0.3-0.4,0.4-0.6c0.1-0.2,0.1-0.5,0.2-0.7C23.2,70.6,23.2,70.4,23.2,70.1z"/>
	<path d="M29.5,73.3l0-0.9c-0.1,0.3-0.4,0.5-0.6,0.7c-0.3,0.2-0.6,0.3-1,0.3c-0.3,0-0.6-0.1-0.8-0.2c-0.2-0.1-0.4-0.3-0.5-0.5
		c-0.1-0.2-0.2-0.4-0.3-0.7c-0.1-0.3-0.1-0.5-0.1-0.8V67h1.1v4.2c0,0.2,0,0.3,0.1,0.5s0.1,0.3,0.2,0.4s0.2,0.2,0.3,0.3
		c0.1,0.1,0.3,0.1,0.5,0.1c0.2,0,0.4,0,0.5-0.1c0.2-0.1,0.3-0.2,0.4-0.4c0.1-0.2,0.2-0.3,0.2-0.5c0-0.2,0.1-0.4,0.1-0.5v-4h1.1v4.5
		c0,0.3,0,0.6,0,0.9c0,0.3,0,0.6,0,0.9H29.5z"/>
	<path d="M35,73.3c-0.2,0.1-0.3,0.1-0.5,0.1c-0.2,0-0.4,0-0.5,0c-0.5,0-0.8-0.1-1-0.4c-0.2-0.3-0.3-0.6-0.3-1.1v-4h-0.9V67h0.9v-1.4
		l1.1-0.4V67h1.2v0.9h-1.2v3.8c0,0.1,0,0.2,0,0.4c0,0.1,0,0.2,0.1,0.3s0.1,0.1,0.2,0.2c0.1,0,0.2,0.1,0.4,0.1c0.1,0,0.2,0,0.3-0.1
		c0.1,0,0.2-0.1,0.3-0.1L35,73.3z"/>
	<path d="M37.1,70.4c0,0.3,0,0.5,0.1,0.8c0.1,0.3,0.1,0.5,0.3,0.7c0.1,0.2,0.3,0.4,0.5,0.5c0.2,0.1,0.5,0.2,0.8,0.2
		c0.3,0,0.5,0,0.8-0.1c0.3-0.1,0.5-0.2,0.7-0.4l0.1,1c-0.3,0.1-0.5,0.2-0.8,0.3s-0.6,0.1-0.8,0.1c-0.5,0-0.9-0.1-1.2-0.3
		c-0.3-0.2-0.6-0.4-0.8-0.7c-0.2-0.3-0.4-0.6-0.5-1.1C36,71,36,70.6,36,70.1c0-0.4,0-0.8,0.1-1.2c0.1-0.4,0.2-0.7,0.4-1
		c0.2-0.3,0.4-0.5,0.7-0.7s0.6-0.3,1.1-0.3s0.8,0.1,1.1,0.3c0.3,0.2,0.5,0.5,0.7,0.7c0.2,0.3,0.3,0.6,0.4,1c0.1,0.4,0.1,0.7,0.1,1.1
		v0.4L37.1,70.4L37.1,70.4z M39.4,69.7c0-0.2,0-0.4,0-0.6c0-0.2-0.1-0.5-0.2-0.6c-0.1-0.2-0.2-0.4-0.4-0.5c-0.2-0.1-0.3-0.2-0.5-0.2
		c-0.2,0-0.4,0.1-0.6,0.2c-0.2,0.1-0.3,0.3-0.4,0.5c-0.1,0.2-0.2,0.4-0.2,0.6s-0.1,0.5-0.1,0.6L39.4,69.7L39.4,69.7z"/>
	<path d="M48.1,73.3V69c0-0.2,0-0.3,0-0.5s-0.1-0.3-0.1-0.4c-0.1-0.1-0.2-0.2-0.3-0.3c-0.1-0.1-0.3-0.1-0.5-0.1
		c-0.2,0-0.3,0.1-0.5,0.2c-0.1,0.1-0.3,0.2-0.4,0.4c-0.1,0.2-0.2,0.3-0.2,0.5c0,0.2-0.1,0.4-0.1,0.5v4H45V69c0-0.2,0-0.3,0-0.5
		c0-0.2-0.1-0.3-0.1-0.4c-0.1-0.1-0.2-0.2-0.3-0.3c-0.1-0.1-0.3-0.1-0.5-0.1c-0.2,0-0.3,0.1-0.5,0.2s-0.3,0.2-0.4,0.4
		c-0.1,0.2-0.2,0.3-0.2,0.5c0,0.2-0.1,0.4-0.1,0.5v4H42v-4.5c0-0.3,0-0.6,0-0.9c0-0.3,0-0.6,0-0.9h1l0,0.9c0.1-0.3,0.4-0.5,0.6-0.7
		c0.3-0.2,0.6-0.3,0.9-0.3c0.4,0,0.7,0.1,0.9,0.3c0.3,0.2,0.4,0.5,0.5,0.8c0.2-0.3,0.4-0.6,0.7-0.8c0.3-0.2,0.5-0.3,0.9-0.3
		c0.6,0,1,0.2,1.3,0.6s0.4,0.9,0.4,1.5v4.4L48.1,73.3L48.1,73.3z"/>
	<path d="M59.8,73c-0.3,0.2-0.7,0.3-1,0.4c-0.4,0.1-0.7,0.1-1.1,0.1c-0.6,0-1.2-0.1-1.6-0.4c-0.5-0.2-0.8-0.5-1.1-0.9
		s-0.5-0.8-0.6-1.4c-0.1-0.5-0.2-1.1-0.2-1.6c0-0.6,0.1-1.1,0.3-1.6c0.2-0.5,0.4-1,0.7-1.4c0.3-0.4,0.7-0.7,1.2-1
		c0.5-0.2,1-0.4,1.6-0.4c0.4,0,0.7,0,1,0.1c0.3,0.1,0.6,0.2,0.9,0.3l-0.1,1.1c-0.3-0.2-0.5-0.3-0.8-0.4s-0.6-0.1-0.9-0.1
		c-0.5,0-0.8,0.1-1.2,0.3c-0.3,0.2-0.6,0.5-0.8,0.8c-0.2,0.3-0.4,0.7-0.5,1.1c-0.1,0.4-0.2,0.8-0.2,1.2c0,0.4,0,0.8,0.1,1.2
		c0.1,0.4,0.2,0.8,0.5,1.1c0.2,0.3,0.5,0.6,0.8,0.8c0.3,0.2,0.7,0.3,1.2,0.3c0.2,0,0.3,0,0.5-0.1c0.2,0,0.3-0.1,0.5-0.2v-2.6h-1.3
		v-0.9h2.4C59.8,68.7,59.8,73,59.8,73z"/>
	<path d="M62.3,70.4c0,0.3,0,0.5,0.1,0.8c0.1,0.3,0.1,0.5,0.3,0.7c0.1,0.2,0.3,0.4,0.5,0.5c0.2,0.1,0.5,0.2,0.8,0.2
		c0.3,0,0.5,0,0.8-0.1c0.3-0.1,0.5-0.2,0.7-0.4l0.1,1c-0.3,0.1-0.5,0.2-0.8,0.3s-0.6,0.1-0.8,0.1c-0.5,0-0.9-0.1-1.2-0.3
		c-0.3-0.2-0.6-0.4-0.8-0.7c-0.2-0.3-0.4-0.6-0.5-1.1c-0.1-0.4-0.1-0.8-0.1-1.3c0-0.4,0-0.8,0.1-1.2c0.1-0.4,0.2-0.7,0.4-1
		c0.2-0.3,0.4-0.5,0.7-0.7c0.3-0.2,0.6-0.3,1.1-0.3s0.8,0.1,1.1,0.3c0.3,0.2,0.5,0.5,0.7,0.7c0.2,0.3,0.3,0.6,0.4,1
		c0.1,0.4,0.1,0.7,0.1,1.1v0.4L62.3,70.4L62.3,70.4z M64.7,69.7c0-0.2,0-0.4,0-0.6c0-0.2-0.1-0.5-0.2-0.6c-0.1-0.2-0.2-0.4-0.4-0.5
		c-0.2-0.1-0.3-0.2-0.5-0.2c-0.2,0-0.4,0.1-0.6,0.2c-0.2,0.1-0.3,0.3-0.4,0.5c-0.1,0.2-0.2,0.4-0.2,0.6c0,0.2-0.1,0.5-0.1,0.6
		L64.7,69.7L64.7,69.7z"/>
	<path d="M69.9,65.1C69.8,65,69.6,65,69.5,65c-0.3,0-0.5,0.1-0.6,0.3s-0.2,0.4-0.2,0.7V67h1.1v0.9h-1.1v5.4h-1.1v-5.4h-1V67h1V66
		c0-0.6,0.1-1.1,0.4-1.4c0.3-0.3,0.7-0.4,1.2-0.4c0.2,0,0.3,0,0.5,0s0.2,0.1,0.3,0.1L69.9,65.1z"/>
	<path d="M74.3,73.3l0-0.9c-0.2,0.3-0.4,0.5-0.6,0.7c-0.3,0.2-0.6,0.3-1,0.3c-0.3,0-0.6-0.1-0.8-0.2c-0.2-0.1-0.4-0.3-0.5-0.5
		c-0.1-0.2-0.2-0.4-0.3-0.7C71,71.9,71,71.6,71,71.3V67h1.1v4.2c0,0.2,0,0.3,0,0.5c0,0.2,0.1,0.3,0.2,0.4c0.1,0.1,0.2,0.2,0.3,0.3
		s0.3,0.1,0.5,0.1c0.2,0,0.4,0,0.5-0.1c0.2-0.1,0.3-0.2,0.4-0.4c0.1-0.1,0.2-0.3,0.2-0.5c0.1-0.2,0.1-0.4,0.1-0.6v-4h1.1v4.6
		c0,0.3,0,0.6,0,0.9c0,0.3,0,0.6,0,0.9H74.3z M71.8,65.8v-1.2h0.9v1.2H71.8z M73.6,65.8v-1.2h0.9v1.2H73.6z"/>
	<path d="M80.5,73.3V69c0-0.3-0.1-0.6-0.2-0.9c-0.2-0.3-0.4-0.4-0.8-0.4c-0.2,0-0.4,0.1-0.5,0.2c-0.2,0.1-0.3,0.2-0.4,0.4
		c-0.1,0.2-0.2,0.3-0.2,0.5s-0.1,0.4-0.1,0.5v3.9h-1.1v-9.1h1.1V68c0.1-0.3,0.3-0.5,0.6-0.7c0.3-0.2,0.6-0.3,0.9-0.3
		c0.3,0,0.6,0.1,0.8,0.2c0.2,0.1,0.4,0.3,0.5,0.5c0.1,0.2,0.2,0.4,0.3,0.6c0.1,0.3,0.1,0.5,0.1,0.8v4.3
		C81.6,73.3,80.5,73.3,80.5,73.3z"/>
	<path d="M83.4,73.3v-9.1h1.1v9.1H83.4z"/>
	<path d="M92.9,73.3l0-0.9c-0.1,0.3-0.4,0.5-0.6,0.7c-0.3,0.2-0.6,0.3-1,0.3c-0.3,0-0.6-0.1-0.8-0.2c-0.2-0.1-0.4-0.3-0.5-0.5
		c-0.1-0.2-0.2-0.4-0.3-0.7c-0.1-0.3-0.1-0.5-0.1-0.8V67h1.1v4.2c0,0.2,0,0.3,0.1,0.5s0.1,0.3,0.2,0.4c0.1,0.1,0.2,0.2,0.3,0.3
		s0.3,0.1,0.5,0.1c0.2,0,0.4,0,0.5-0.1c0.2-0.1,0.3-0.2,0.4-0.4c0.1-0.2,0.2-0.3,0.2-0.5c0-0.2,0.1-0.4,0.1-0.5v-4h1.1v4.5
		c0,0.3,0,0.6,0,0.9c0,0.3,0,0.6,0,0.9H92.9z"/>
	<path d="M99.1,73.3V69c0-0.2,0-0.3-0.1-0.5s-0.1-0.3-0.2-0.4s-0.2-0.2-0.3-0.3s-0.3-0.1-0.5-0.1c-0.2,0-0.4,0.1-0.5,0.2
		c-0.2,0.1-0.3,0.2-0.4,0.4c-0.1,0.2-0.2,0.3-0.2,0.5c0,0.2-0.1,0.4-0.1,0.5v4h-1.1v-4.5c0-0.3,0-0.6,0-0.9s0-0.6,0-0.9h1l0,0.9
		c0.1-0.3,0.4-0.5,0.6-0.7c0.3-0.2,0.6-0.3,1-0.3c0.3,0,0.6,0.1,0.8,0.2c0.2,0.1,0.4,0.3,0.5,0.5c0.1,0.2,0.2,0.4,0.3,0.7
		c0.1,0.3,0.1,0.5,0.1,0.8v4.3C100.1,73.3,99.1,73.3,99.1,73.3z"/>
	<path d="M104.7,73.3c-0.2,0.1-0.3,0.1-0.5,0.1c-0.2,0-0.4,0-0.5,0c-0.5,0-0.8-0.1-1-0.4c-0.2-0.3-0.3-0.6-0.3-1.1v-4h-0.9V67h0.9
		v-1.4l1.1-0.4V67h1.2v0.9h-1.2v3.8c0,0.1,0,0.2,0,0.4c0,0.1,0,0.2,0.1,0.3s0.1,0.1,0.2,0.2c0.1,0.1,0.2,0.1,0.4,0.1
		c0.1,0,0.2,0,0.3-0.1c0.1,0,0.2-0.1,0.3-0.1L104.7,73.3z"/>
	<path d="M106.7,70.4c0,0.3,0,0.5,0.1,0.8s0.1,0.5,0.3,0.7c0.1,0.2,0.3,0.4,0.5,0.5c0.2,0.1,0.5,0.2,0.8,0.2c0.3,0,0.5,0,0.8-0.1
		c0.3-0.1,0.5-0.2,0.7-0.4l0.1,1c-0.3,0.1-0.5,0.2-0.8,0.3s-0.6,0.1-0.8,0.1c-0.5,0-0.9-0.1-1.2-0.3c-0.3-0.2-0.6-0.4-0.8-0.7
		c-0.2-0.3-0.4-0.6-0.5-1.1c-0.1-0.4-0.1-0.8-0.1-1.3c0-0.4,0-0.8,0.1-1.2c0.1-0.4,0.2-0.7,0.4-1c0.2-0.3,0.4-0.5,0.7-0.7
		c0.3-0.2,0.6-0.3,1.1-0.3s0.8,0.1,1.1,0.3c0.3,0.2,0.5,0.5,0.7,0.7c0.2,0.3,0.3,0.6,0.4,1c0.1,0.4,0.1,0.7,0.1,1.1v0.4L106.7,70.4
		L106.7,70.4z M109.1,69.7c0-0.2,0-0.4,0-0.6c0-0.2-0.1-0.5-0.2-0.6c-0.1-0.2-0.2-0.4-0.4-0.5s-0.3-0.2-0.5-0.2
		c-0.2,0-0.4,0.1-0.6,0.2c-0.2,0.1-0.3,0.3-0.4,0.5c-0.1,0.2-0.2,0.4-0.2,0.6s-0.1,0.5-0.1,0.6L109.1,69.7L109.1,69.7z"/>
	<path d="M114.4,68c-0.1,0-0.1,0-0.2,0c-0.1,0-0.1,0-0.2,0c-0.2,0-0.5,0.1-0.6,0.2c-0.2,0.1-0.3,0.3-0.4,0.5
		c-0.1,0.2-0.2,0.4-0.2,0.6c0,0.2-0.1,0.4-0.1,0.6v3.5h-1.1v-4.5c0-0.3,0-0.6,0-0.9c0-0.3,0-0.6,0-0.9h1l0,1
		c0.1-0.3,0.4-0.6,0.6-0.8s0.6-0.3,0.9-0.3c0,0,0.1,0,0.1,0s0.1,0,0.1,0L114.4,68z"/>
	<path d="M121.4,73.3h-1.3l-1.1-5.2l-1.2,5.2h-1.3L115,67h1.2l1.1,5.2l1.2-5.2h1.3l1.2,5.2L122,67h1.1L121.4,73.3z"/>
	<path d="M124.9,70.4c0,0.3,0,0.5,0.1,0.8c0,0.3,0.1,0.5,0.3,0.7c0.1,0.2,0.3,0.4,0.5,0.5c0.2,0.1,0.5,0.2,0.8,0.2
		c0.3,0,0.5,0,0.8-0.1c0.3-0.1,0.5-0.2,0.7-0.4l0.1,1c-0.3,0.1-0.5,0.2-0.8,0.3s-0.6,0.1-0.8,0.1c-0.5,0-0.9-0.1-1.2-0.3
		c-0.3-0.2-0.6-0.4-0.8-0.7c-0.2-0.3-0.4-0.6-0.5-1.1c-0.1-0.4-0.1-0.8-0.1-1.3c0-0.4,0-0.8,0.1-1.2c0.1-0.4,0.2-0.7,0.4-1
		c0.2-0.3,0.4-0.5,0.7-0.7c0.3-0.2,0.6-0.3,1.1-0.3s0.8,0.1,1.1,0.3c0.3,0.2,0.5,0.5,0.7,0.7c0.2,0.3,0.3,0.6,0.4,1
		c0.1,0.4,0.1,0.7,0.1,1.1v0.4L124.9,70.4L124.9,70.4z M127.2,69.7c0-0.2,0-0.4,0-0.6c0-0.2-0.1-0.5-0.2-0.6
		c-0.1-0.2-0.2-0.4-0.4-0.5s-0.3-0.2-0.5-0.2s-0.4,0.1-0.6,0.2c-0.2,0.1-0.3,0.3-0.4,0.5c-0.1,0.2-0.2,0.4-0.2,0.6s-0.1,0.5-0.1,0.6
		L127.2,69.7L127.2,69.7z"/>
	<path d="M134.2,73c0,0.5,0,0.9-0.1,1.2c-0.1,0.4-0.2,0.7-0.4,1c-0.2,0.3-0.5,0.5-0.8,0.7c-0.3,0.2-0.7,0.3-1.2,0.3
		c-0.3,0-0.6,0-1-0.1s-0.6-0.2-0.9-0.3l0.1-1c0.3,0.2,0.5,0.3,0.8,0.4s0.6,0.1,0.9,0.1c0.4,0,0.7-0.1,0.9-0.2s0.4-0.4,0.5-0.6
		c0.1-0.3,0.2-0.5,0.2-0.8c0-0.3,0-0.6,0-0.9v-0.4c-0.2,0.3-0.4,0.5-0.6,0.7c-0.3,0.2-0.6,0.3-0.9,0.3c-0.4,0-0.7-0.1-1-0.3
		c-0.3-0.2-0.5-0.5-0.6-0.7c-0.2-0.3-0.3-0.6-0.4-1c-0.1-0.4-0.1-0.7-0.1-1.1c0-0.4,0-0.7,0.1-1.1c0.1-0.4,0.2-0.7,0.4-1.1
		c0.2-0.3,0.4-0.6,0.6-0.8c0.3-0.2,0.6-0.3,1-0.3c0.4,0,0.7,0.1,1,0.3c0.3,0.2,0.5,0.4,0.6,0.7V67h1.1C134.2,67,134.2,73,134.2,73z
		 M133.2,70.1c0-0.2,0-0.5-0.1-0.7c0-0.3-0.1-0.5-0.2-0.8c-0.1-0.2-0.2-0.5-0.4-0.6c-0.2-0.2-0.4-0.2-0.7-0.2s-0.5,0.1-0.6,0.3
		s-0.3,0.4-0.4,0.6c-0.1,0.2-0.1,0.5-0.2,0.8c0,0.3,0,0.5,0,0.7c0,0.2,0,0.5,0,0.7c0,0.3,0.1,0.5,0.2,0.7c0.1,0.2,0.2,0.4,0.4,0.6
		s0.4,0.2,0.6,0.2c0.3,0,0.5-0.1,0.7-0.2c0.2-0.2,0.3-0.4,0.4-0.6c0.1-0.2,0.1-0.5,0.2-0.7C133.2,70.6,133.2,70.4,133.2,70.1z"/>
	<path d="M139.5,71.6c0,0.3-0.1,0.5-0.2,0.8s-0.2,0.4-0.4,0.6c-0.2,0.2-0.4,0.3-0.6,0.4s-0.5,0.1-0.8,0.1c-0.6,0-1.2-0.1-1.8-0.3
		l0.1-1c0.3,0.1,0.5,0.2,0.7,0.3c0.3,0.1,0.5,0.1,0.8,0.1c0.1,0,0.2,0,0.4-0.1c0.1,0,0.2-0.1,0.3-0.2s0.2-0.2,0.2-0.3
		c0.1-0.1,0.1-0.2,0.1-0.4c0-0.2-0.1-0.4-0.2-0.5c-0.1-0.1-0.3-0.3-0.5-0.4s-0.4-0.2-0.6-0.4c-0.2-0.1-0.4-0.2-0.6-0.4
		c-0.2-0.2-0.4-0.4-0.5-0.5c-0.1-0.2-0.2-0.5-0.2-0.8c0-0.3,0.1-0.5,0.2-0.8c0.1-0.2,0.3-0.4,0.5-0.5c0.2-0.2,0.4-0.3,0.6-0.3
		s0.5-0.1,0.7-0.1c0.2,0,0.5,0,0.7,0.1c0.2,0,0.5,0.1,0.7,0.2l-0.1,0.9c-0.2-0.1-0.4-0.2-0.6-0.2c-0.2-0.1-0.4-0.1-0.6-0.1
		c-0.3,0-0.5,0.1-0.7,0.2c-0.2,0.1-0.3,0.4-0.3,0.6c0,0.2,0.1,0.4,0.2,0.5s0.3,0.3,0.5,0.4s0.4,0.2,0.6,0.3c0.2,0.1,0.4,0.2,0.6,0.4
		c0.2,0.2,0.4,0.3,0.5,0.5C139.4,71,139.5,71.2,139.5,71.6z"/>
	<path d="M141,73.3v-1.4h1.2v1.4H141z"/>
</g>
</svg>
