<?xml version="1.0" encoding="utf-8"?>
<!-- Generator: Adobe Illustrator 17.1.0, SVG Export Plug-In . SVG Version: 6.00 Build 0)  -->
<!DOCTYPE svg PUBLIC "-//W3C//DTD SVG 1.1//EN" "http://www.w3.org/Graphics/SVG/1.1/DTD/svg11.dtd">
<svg version="1.1" id="Ebene_1" xmlns="http://www.w3.org/2000/svg" xmlns:xlink="http://www.w3.org/1999/xlink" x="0px" y="0px"
	 width="178px" height="90px" viewBox="-20 -15.4 178 90" enable-background="new -20 -15.4 178 90" xml:space="preserve">
<path fill="#FFFFFF" d="M-20-15.4v90h138.1l39.9-90H-20z M25.4,22.9c-1.3-0.3-2.5-0.3-3.8-0.3c-5.8,0-9.1,3.5-9.1,9.8v13.7H0V13.7
	h11.3v6h0.1c2.1-4.1,5.3-6.4,10.7-6.4c1.1,0,2.2,0.1,3.2,0.2V22.9z M67.6,46.1H55.2V30.5c0-6.1-2.3-8.1-5.7-8.1
	c-5.1,0-7.7,3.2-7.7,10.1v13.7H29.3V13.7h11.3v6h0.1c2.5-4.7,7.5-6.7,13.1-6.7c9.8,0,13.7,6.2,13.7,12.9V46.1z M97.1,46.1H80.4
	l-9.5-24H83l5.8,14.6H89l10.5-23H112L97.1,46.1z"/>
<path fill="#1A2947" d="M53.9,13c-5.7,0-10.6,2.1-13.1,6.7h-0.1v-6H29.3v32.4h12.4V32.5c0-7,2.6-10.1,7.7-10.1
	c3.4,0,5.7,2.1,5.7,8.1v15.7h12.4V25.9C67.6,19.2,63.7,13,53.9,13z"/>
<polygon fill="#EE7203" points="89,36.8 88.9,36.8 83,22.1 70.9,22.1 80.4,46.1 97.1,46.1 112,13.7 99.5,13.7 "/>
<path fill="#1A2947" d="M11.5,19.7h-0.1v-6H0v32.4h12.4V32.5c0-6.3,3.3-9.8,9.1-9.8c1.3,0,2.6,0,3.8,0.3v-9.4
	c-1-0.1-2.1-0.2-3.2-0.2C16.8,13.3,13.6,15.6,11.5,19.7z"/>
</svg>
