<?xml version="1.0" encoding="utf-8"?>
<!-- Generator: Adobe Illustrator 17.1.0, SVG Export Plug-In . SVG Version: 6.00 Build 0)  -->
<!DOCTYPE svg PUBLIC "-//W3C//DTD SVG 1.1//EN" "http://www.w3.org/Graphics/SVG/1.1/DTD/svg11.dtd">
<svg version="1.1" id="Alert" xmlns="http://www.w3.org/2000/svg" xmlns:xlink="http://www.w3.org/1999/xlink" x="0px" y="0px"
	 width="28px" height="28px" viewBox="4 4 28 28" enable-background="new 4 4 28 28" xml:space="preserve">
<g>
	<path fill="#FFFFFF" d="M5.4,18c0,3.5,1.4,6.6,3.7,8.9l-1,1C5.6,25.3,4,21.8,4,18c0-3.9,1.6-7.4,4.1-9.9l1,1
		C6.8,11.3,5.4,14.5,5.4,18z M10.1,25.9c-2-2-3.3-4.8-3.3-7.9c0-3.1,1.3-5.9,3.3-7.9l1,1c-1.8,1.8-2.9,4.2-2.9,6.9
		c0,2.7,1.1,5.1,2.9,6.9L10.1,25.9z M12,23.9c-1.5-1.5-2.5-3.6-2.5-6c0-2.3,0.9-4.4,2.5-6l1,1c-1.3,1.3-2.1,3-2.1,4.9
		s0.8,3.7,2.1,4.9L12,23.9z M13.8,20.8c0-2.8,1.4-1.4,1.4-5.6c0-1.5,1.3-2.8,2.8-2.8c1.5,0,2.8,1.3,2.8,2.8c0,4.2,1.4,2.8,1.4,5.6
		C22.2,20.8,13.8,20.8,13.8,20.8z M19.4,15.2c0-0.8-0.6-1.4-1.4-1.4c-0.8,0-1.4,0.6-1.4,1.4c0,3.2-1.2,4-1.2,4.2h5.1
		C20.5,19.2,19.4,18.3,19.4,15.2z M18,23.6c-0.8,0-1.4-0.6-1.4-1.4h2.8C19.4,23,18.8,23.6,18,23.6z M24,23.9l-1-1
		c1.3-1.3,2.1-3,2.1-4.9s-0.8-3.7-2.1-4.9l1-1c1.5,1.5,2.5,3.6,2.5,6C26.4,20.3,25.5,22.4,24,23.9z M25.9,25.9l-1-1
		c1.8-1.8,2.9-4.2,2.9-6.9c0-2.7-1.1-5.2-2.9-6.9l1-1c2,2,3.3,4.8,3.3,7.9C29.2,21.1,27.9,23.9,25.9,25.9z M27.9,27.9l-1-1
		c2.3-2.3,3.7-5.5,3.7-8.9c0-3.5-1.4-6.7-3.7-8.9l1-1c2.5,2.5,4.1,6,4.1,9.9C32,21.8,30.4,25.3,27.9,27.9z"/>
</g>
</svg>
