<?xml version="1.0" encoding="utf-8"?>
<!-- Generator: Adobe Illustrator 17.1.0, SVG Export Plug-In . SVG Version: 6.00 Build 0)  -->
<!DOCTYPE svg PUBLIC "-//W3C//DTD SVG 1.1//EN" "http://www.w3.org/Graphics/SVG/1.1/DTD/svg11.dtd">
<svg version="1.1" id="Ebene_1" xmlns="http://www.w3.org/2000/svg" xmlns:xlink="http://www.w3.org/1999/xlink" x="0px" y="0px"
	 width="28px" height="28px" viewBox="0.3 0.4 28 28" enable-background="new 0.3 0.4 28 28" xml:space="preserve">
<g>
	<path fill="#FFFFFF" d="M14.3,28.4c-3.7,0-7.3-1.5-9.9-4.1c-2.6-2.6-4.1-6.2-4.1-9.9s1.5-7.3,4.1-9.9c2.6-2.6,6.2-4.1,9.9-4.1
		s7.3,1.5,9.9,4.1s4.1,6.2,4.1,9.9c0,3.7-1.5,7.3-4.1,9.9S18.1,28.4,14.3,28.4z M14.3,2.4c-6.6,0-12,5.4-12,12s5.4,12,12,12
		s12-5.4,12-12S20.9,2.4,14.3,2.4z"/>
</g>
<g>
	<path fill="#FFFFFF" d="M8.1,6.8h3.1v6.2h6.2V6.8h3.1v15.4h-3.1v-6.8h-6.2v6.8H8.1V6.8z"/>
</g>
</svg>
