<?xml version="1.0" encoding="utf-8"?>
<!-- Generator: Adobe Illustrator 17.1.0, SVG Export Plug-In . SVG Version: 6.00 Build 0)  -->
<!DOCTYPE svg PUBLIC "-//W3C//DTD SVG 1.1//EN" "http://www.w3.org/Graphics/SVG/1.1/DTD/svg11.dtd">
<svg version="1.1" id="Ebene_1" xmlns="http://www.w3.org/2000/svg" xmlns:xlink="http://www.w3.org/1999/xlink" x="0px" y="0px" width="36" height="36"
	 viewBox="0 0 36 36" enable-background="new 0 0 36 36" xml:space="preserve">
<path fill="#454545" d="M17.7,13.1c0.5,0,0.7-0.4,0.7-1.1V8.6c0-0.7-0.2-1.1-0.7-1.1c-0.5,0-0.7,0.4-0.7,1.1V12
	C17,12.8,17.2,13.1,17.7,13.1z"/>
<path fill="#454545" d="M32,0H4C1.8,0,0,1.8,0,4v28c0,2.2,1.8,4,4,4h28c2.2,0,4-1.8,4-4V4C36,1.8,34.2,0,32,0z M21,6.3h1.5v5.9
	c0,0.3,0,0.5,0,0.6c0,0.2,0.1,0.3,0.3,0.3c0.3,0,0.6-0.2,0.9-0.7V6.3h1.5v8.1h-1.5v-0.9c-0.6,0.7-1.1,1-1.7,1
	c-0.5,0-0.8-0.2-0.9-0.6c-0.1-0.2-0.1-0.6-0.1-1.2V6.3z M15.5,8.9C15.5,8,15.7,7.4,16,7c0.4-0.6,1-0.8,1.7-0.8
	c0.7,0,1.3,0.3,1.7,0.8c0.3,0.4,0.5,1,0.5,1.9v2.8c0,0.9-0.1,1.5-0.5,1.9c-0.4,0.5-1,0.8-1.7,0.8c-0.7,0-1.3-0.3-1.7-0.8
	c-0.3-0.4-0.5-1-0.5-1.9V8.9z M11.6,3.5l1.2,4.3l1.1-4.3h1.6l-2,6.4v4.4h-1.6V10c-0.1-0.8-0.5-1.9-1-3.4c-0.3-1-0.7-2-1-3H11.6z
	 M29.6,29.8c-0.3,1.3-1.3,2.2-2.6,2.4c-3,0.3-6,0.3-9,0.3c-3,0-6,0-9-0.3c-1.3-0.1-2.3-1.1-2.6-2.4C6,28,6,26,6,24.1
	c0-1.9,0-3.8,0.4-5.7c0.3-1.3,1.3-2.2,2.6-2.4c3-0.3,6-0.3,9-0.3c3,0,6,0,9,0.3c1.3,0.1,2.3,1.1,2.6,2.4c0.4,1.8,0.4,3.8,0.4,5.7
	C30,26,30,28,29.6,29.8z"/>
<path fill="#454545" d="M26,21.2c-0.7,0-1.3,0.3-1.7,0.8c-0.3,0.4-0.4,1-0.4,1.9v2.8c0,0.8,0.2,1.5,0.5,1.9c0.4,0.5,1,0.8,1.8,0.8
	c0.8,0,1.3-0.3,1.7-0.9c0.2-0.3,0.3-0.5,0.3-0.9c0-0.1,0-0.5,0-0.9v-0.2h-1.5c0,0.6,0,0.9,0,1c-0.1,0.4-0.3,0.6-0.6,0.6
	c-0.5,0-0.7-0.4-0.7-1.1v-1.4h2.9v-1.7c0-0.9-0.1-1.5-0.4-1.9C27.3,21.5,26.8,21.2,26,21.2z M26.7,24.4h-1.4v-0.7
	c0-0.7,0.2-1.1,0.7-1.1c0.5,0,0.7,0.4,0.7,1.1V24.4z"/>
<path fill="#454545" d="M15.8,27.4c-0.3,0.5-0.6,0.7-0.9,0.7c-0.2,0-0.3-0.1-0.3-0.3c0,0,0-0.2,0-0.6v-5.9h-1.4v6.3
	c0,0.6,0,0.9,0.1,1.2c0.1,0.4,0.5,0.6,0.9,0.6c0.5,0,1.1-0.3,1.7-1v0.9h1.4v-8h-1.4V27.4z"/>
<polygon fill="#454545" points="7.8,20.1 9.5,20.1 9.5,29.3 11.1,29.3 11.1,20.1 12.9,20.1 12.9,18.6 7.8,18.6 "/>
<path fill="#454545" d="M21.4,21.2c-0.5,0-1,0.3-1.5,0.9v-3.5h-1.4v10.7h1.4v-0.8c0.5,0.6,1,0.9,1.5,0.9c0.6,0,1-0.3,1.2-0.9
	c0.1-0.3,0.1-0.9,0.1-1.6v-3.2c0-0.8,0-1.3-0.1-1.6C22.4,21.5,22,21.2,21.4,21.2z M21.3,27c0,0.7-0.2,1.1-0.6,1.1
	c-0.2,0-0.5-0.1-0.7-0.4v-4.9c0.2-0.2,0.5-0.4,0.7-0.4c0.4,0,0.6,0.4,0.6,1.1V27z"/>
</svg>
