<?xml version="1.0" encoding="utf-8"?>
<!-- Generator: Adobe Illustrator 17.1.0, SVG Export Plug-In . SVG Version: 6.00 Build 0)  -->
<!DOCTYPE svg PUBLIC "-//W3C//DTD SVG 1.1//EN" "http://www.w3.org/Graphics/SVG/1.1/DTD/svg11.dtd">
<svg version="1.1" id="Ebene_1" xmlns="http://www.w3.org/2000/svg" xmlns:xlink="http://www.w3.org/1999/xlink" x="0px" y="0px" width="36" height="36"
	 viewBox="0 0 36 36" enable-background="new 0 0 36 36" xml:space="preserve">
<path fill="#454545" d="M32,0H4C1.8,0,0,1.8,0,4v28c0,2.2,1.8,4,4,4h16V21.9h-4.8v-5.5H20v-4.1C20,7.6,22.8,5,27,5
	c2,0,3.7,0.2,4.3,0.2v4.9l-2.9,0c-2.3,0-2.7,1.1-2.7,2.7v3.5h5.5l-0.7,5.5h-4.7V36H32c2.2,0,4-1.8,4-4V4C36,1.8,34.2,0,32,0z"/>
</svg>
