<?xml version="1.0" encoding="utf-8"?>
<!-- Generator: Adobe Illustrator 17.1.0, SVG Export Plug-In . SVG Version: 6.00 Build 0)  -->
<!DOCTYPE svg PUBLIC "-//W3C//DTD SVG 1.1//EN" "http://www.w3.org/Graphics/SVG/1.1/DTD/svg11.dtd">
<svg version="1.1" id="Ebene_1" xmlns="http://www.w3.org/2000/svg" xmlns:xlink="http://www.w3.org/1999/xlink" x="0px" y="0px"
	 width="32px" height="32px" viewBox="-0.1 0 32 32" enable-background="new -0.1 0 32 32" xml:space="preserve">
<path fill="#FFFFFF" d="M15.9,0c-8.8,0-16,7.2-16,16s7.2,16,16,16s16-7.2,16-16S24.7,0,15.9,0z M16.9,28.6V27h-2v1.6
	C8.7,28.2,3.7,23.2,3.3,17H5v-1.9H3.3C3.7,8.7,8.7,3.7,14.9,3.4v1.7h2V3.4c6.3,0.4,11.3,5.5,11.6,11.7h-1.7v2h1.6
	C28,23.3,23,28.2,16.9,28.6z"/>
<path fill="#FFFFFF" d="M15.8,18.4l-4.3-5.2l-1.4,1.2l5.1,6.2l0,0c0,0.1,0.1,0.1,0.2,0.1s0.1,0.1,0.2,0.1l0,0h0.1c0.1,0,0.1,0,0.2,0
	c0.1,0,0.1,0,0.2,0c0.1,0,0.1,0,0.2,0s0.1-0.1,0.2-0.1c0,0,0.1,0,0.1-0.1l0,0c0.1,0,0.1-0.1,0.1-0.2c0-0.1,0.1-0.1,0.1-0.2l0,0
	l5.1-10l-1.6-0.7L15.8,18.4z"/>
</svg>
